<svg xmlns="http://www.w3.org/2000/svg" xmlns:xlink="http://www.w3.org/1999/xlink" preserveAspectRatio="xMidYMid meet" width="17" height="17"><style><![CDATA[.B{fill-opacity:0}]]></style><defs><path d="M6 0h5v1H6V0z" id="A"/><path d="M6 16h5v1H6v-1z" id="B"/><path d="M0 6h1v5H0V6z" id="C"/><path d="M16 6h1v5h-1V6z" id="D"/><path d="M4 1h2v1H4V1z" id="E"/><path d="M11 1h2v1h-2V1z" id="F"/><path d="M4 15h2v1H4v-1z" id="G"/><path d="M11 15h2v1h-2v-1z" id="H"/><path d="M1 4h1v2H1V4z" id="I"/><path d="M15 4h1v2h-1V4z" id="J"/><path d="M1 11h1v2H1v-2z" id="K"/><path d="M15 11h1v2h-1v-2z" id="L"/><path d="M3 2h1v1H3V2z" id="M"/><path d="M2 3h1v1H2V3z" id="N"/><path d="M13 2h1v1h-1V2z" id="O"/><path d="M14 3h1v1h-1V3z" id="P"/><path d="M14 13h1v1h-1v-1z" id="Q"/><path d="M13 14h1v1h-1v-1z" id="R"/><path d="M2 13h1v1H2v-1z" id="S"/><path d="M3 14h1v1H3v-1z" id="T"/><path d="M1 6h15v5H1V6z" id="U"/><path d="M2 4h13v9H2V4z" id="V"/><path d="M3 3h11v11H3V3z" id="W"/><path d="M4 2h9v13H4V2z" id="X"/><path d="M6 1h5v15H6V1z" id="Y"/><path d="M5 5h2v2H5V5z" id="Z"/><path d="M10 5h2v2h-2V5z" id="a"/><path d="M6 12h5v1H6v-1z" id="b"/><path d="M11 11h1v1h-1v-1z" id="c"/><path d="M12 10h1v1h-1v-1z" id="d"/><path d="M5 11h1v1H5v-1z" id="e"/><path d="M4 10h1v1H4v-1z" id="f"/></defs><use xlink:href="#A"/><use xlink:href="#A" class="B"/><use xlink:href="#B"/><use xlink:href="#B" class="B"/><use xlink:href="#C"/><use xlink:href="#C" class="B"/><use xlink:href="#D"/><use xlink:href="#D" class="B"/><use xlink:href="#E"/><use xlink:href="#E" class="B"/><use xlink:href="#F"/><use xlink:href="#F" class="B"/><use xlink:href="#G"/><use xlink:href="#G" class="B"/><use xlink:href="#H"/><use xlink:href="#H" class="B"/><use xlink:href="#I"/><use xlink:href="#I" class="B"/><use xlink:href="#J"/><use xlink:href="#J" class="B"/><use xlink:href="#K"/><use xlink:href="#K" class="B"/><use xlink:href="#L"/><use xlink:href="#L" class="B"/><use xlink:href="#M"/><use xlink:href="#M" class="B"/><use xlink:href="#N"/><use xlink:href="#N" class="B"/><use xlink:href="#O"/><use xlink:href="#O" class="B"/><use xlink:href="#P"/><use xlink:href="#P" class="B"/><use xlink:href="#Q"/><use xlink:href="#Q" class="B"/><use xlink:href="#R"/><use xlink:href="#R" class="B"/><use xlink:href="#S"/><use xlink:href="#S" class="B"/><use xlink:href="#T"/><use xlink:href="#T" class="B"/><g fill="#ff0"><use xlink:href="#U"/><use xlink:href="#V"/><use xlink:href="#W"/><use xlink:href="#X"/><use xlink:href="#Y"/></g><use xlink:href="#Z"/><use xlink:href="#Z" class="B"/><use xlink:href="#a"/><use xlink:href="#a" class="B"/><use xlink:href="#b"/><use xlink:href="#b" class="B"/><use xlink:href="#c"/><use xlink:href="#c" class="B"/><use xlink:href="#d"/><use xlink:href="#d" class="B"/><use xlink:href="#e"/><use xlink:href="#e" class="B"/><use xlink:href="#f"/><use xlink:href="#f" class="B"/></svg>