<?xml version="1.0" encoding="utf-8" ?>
<svg baseProfile="full" version="1.1" height="16px" width="16px" xmlns="http://www.w3.org/2000/svg"
	xmlns:ev="http://www.w3.org/2001/xml-events" xmlns:xlink="http://www.w3.org/1999/xlink">
	<style type="text/css" >
		<![CDATA[
			rect {
				height: 1px;
				width: 1px;
			}
		]]>
	</style>
	<defs />
	<rect fill="rgb(232,227,240)" x="7px" y="0px" />
	<rect fill="rgb(166,158,206)" x="8px" y="0px" />
	<rect fill="rgb(80,76,164)" x="2px" y="1px" />
	<rect fill="rgb(162,160,205)" x="3px" y="1px" />
	<rect fill="rgb(233,231,240)" x="5px" y="1px" />
	<rect fill="rgb(215,211,231)" x="6px" y="1px" />
	<rect fill="rgb(169,158,205)" x="7px" y="1px" />
	<rect fill="rgb(80,76,164)" x="8px" y="1px" />
	<rect fill="rgb(124,116,181)" x="9px" y="1px" />
	<rect fill="rgb(157,148,197)" x="10px" y="1px" />
	<rect fill="rgb(82,75,164)" x="12px" y="1px" />
	<rect fill="rgb(100,91,170)" x="13px" y="1px" />
	<rect fill="rgb(125,115,182)" x="2px" y="2px" />
	<rect fill="rgb(80,76,164)" x="3px" y="2px" />
	<rect fill="rgb(235,233,242)" x="4px" y="2px" />
	<rect fill="rgb(243,241,246)" x="5px" y="2px" />
	<rect fill="rgb(239,238,245)" x="6px" y="2px" />
	<rect fill="rgb(180,170,211)" x="7px" y="2px" />
	<rect fill="rgb(65,61,157)" x="8px" y="2px" />
	<rect fill="rgb(46,53,145)" x="9px" y="2px" />
	<rect fill="rgb(141,132,188)" x="10px" y="2px" />
	<rect fill="rgb(124,114,181)" x="11px" y="2px" />
	<rect fill="rgb(100,91,170)" x="12px" y="2px" />
	<rect fill="rgb(26,34,139)" x="13px" y="2px" />
	<rect fill="rgb(100,91,170)" x="14px" y="2px" />
	<rect fill="rgb(125,115,182)" x="2px" y="3px" />
	<rect fill="rgb(225,222,236)" x="3px" y="3px" />
	<rect fill="rgb(243,241,246)" x="4px" y="3px" />
	<rect fill="rgb(251,251,252)" x="5px" y="3px" />
	<rect fill="rgb(240,238,244)" x="6px" y="3px" />
	<rect fill="rgb(200,194,221)" x="7px" y="3px" />
	<rect fill="rgb(152,148,198)" x="8px" y="3px" />
	<rect fill="rgb(184,176,211)" x="9px" y="3px" />
	<rect fill="rgb(152,142,194)" x="10px" y="3px" />
	<rect fill="rgb(124,114,181)" x="11px" y="3px" />
	<rect fill="rgb(103,94,172)" x="12px" y="3px" />
	<rect fill="rgb(56,60,156)" x="13px" y="3px" />
	<rect fill="rgb(206,202,223)" x="2px" y="4px" />
	<rect fill="rgb(219,215,231)" x="3px" y="4px" />
	<rect fill="rgb(233,231,241)" x="4px" y="4px" />
	<rect fill="rgb(239,237,243)" x="5px" y="4px" />
	<rect fill="rgb(233,230,240)" x="6px" y="4px" />
	<rect fill="rgb(218,214,230)" x="7px" y="4px" />
	<rect fill="rgb(204,199,221)" x="8px" y="4px" />
	<rect fill="rgb(172,163,204)" x="9px" y="4px" />
	<rect fill="rgb(149,140,193)" x="10px" y="4px" />
	<rect fill="rgb(124,114,181)" x="11px" y="4px" />
	<rect fill="rgb(102,92,171)" x="12px" y="4px" />
	<rect fill="rgb(82,75,164)" x="13px" y="4px" />
	<rect fill="rgb(204,198,224)" x="1px" y="5px" />
	<rect fill="rgb(196,190,217)" x="2px" y="5px" />
	<rect fill="rgb(211,206,226)" x="3px" y="5px" />
	<rect fill="rgb(219,215,231)" x="4px" y="5px" />
	<rect fill="rgb(222,218,233)" x="5px" y="5px" />
	<rect fill="rgb(217,213,229)" x="6px" y="5px" />
	<rect fill="rgb(208,204,225)" x="7px" y="5px" />
	<rect fill="rgb(191,185,215)" x="8px" y="5px" />
	<rect fill="rgb(161,152,199)" x="9px" y="5px" />
	<rect fill="rgb(140,131,189)" x="10px" y="5px" />
	<rect fill="rgb(121,111,179)" x="11px" y="5px" />
	<rect fill="rgb(94,85,168)" x="12px" y="5px" />
	<rect fill="rgb(82,75,164)" x="13px" y="5px" />
	<rect fill="rgb(82,75,164)" x="14px" y="5px" />
	<rect fill="rgb(171,163,206)" x="1px" y="6px" />
	<rect fill="rgb(190,183,215)" x="2px" y="6px" />
	<rect fill="rgb(195,189,218)" x="3px" y="6px" />
	<rect fill="rgb(206,200,222)" x="4px" y="6px" />
	<rect fill="rgb(207,201,222)" x="5px" y="6px" />
	<rect fill="rgb(204,199,221)" x="6px" y="6px" />
	<rect fill="rgb(178,169,208)" x="7px" y="6px" />
	<rect fill="rgb(146,137,192)" x="8px" y="6px" />
	<rect fill="rgb(152,142,194)" x="9px" y="6px" />
	<rect fill="rgb(126,117,183)" x="10px" y="6px" />
	<rect fill="rgb(110,100,175)" x="11px" y="6px" />
	<rect fill="rgb(93,86,169)" x="12px" y="6px" />
	<rect fill="rgb(82,75,164)" x="13px" y="6px" />
	<rect fill="rgb(82,75,164)" x="14px" y="6px" />
	<rect fill="rgb(199,191,222)" x="0px" y="7px" />
	<rect fill="rgb(123,114,184)" x="1px" y="7px" />
	<rect fill="rgb(126,116,184)" x="2px" y="7px" />
	<rect fill="rgb(147,139,194)" x="3px" y="7px" />
	<rect fill="rgb(174,166,206)" x="4px" y="7px" />
	<rect fill="rgb(184,176,211)" x="5px" y="7px" />
	<rect fill="rgb(164,155,201)" x="6px" y="7px" />
	<rect fill="rgb(205,197,224)" x="7px" y="7px" />
	<rect fill="rgb(100,94,172)" x="8px" y="7px" />
	<rect fill="rgb(95,93,171)" x="9px" y="7px" />
	<rect fill="rgb(118,109,179)" x="10px" y="7px" />
	<rect fill="rgb(97,87,169)" x="11px" y="7px" />
	<rect fill="rgb(82,75,164)" x="12px" y="7px" />
	<rect fill="rgb(82,75,164)" x="13px" y="7px" />
	<rect fill="rgb(82,75,164)" x="14px" y="7px" />
	<rect fill="rgb(39,42,146)" x="15px" y="7px" />
	<rect fill="rgb(98,96,174)" x="0px" y="8px" />
	<rect fill="rgb(46,49,149)" x="1px" y="8px" />
	<rect fill="rgb(52,50,152)" x="2px" y="8px" />
	<rect fill="rgb(79,77,163)" x="3px" y="8px" />
	<rect fill="rgb(152,142,194)" x="4px" y="8px" />
	<rect fill="rgb(152,142,194)" x="5px" y="8px" />
	<rect fill="rgb(141,132,190)" x="6px" y="8px" />
	<rect fill="rgb(90,85,168)" x="7px" y="8px" />
	<rect fill="rgb(43,46,147)" x="8px" y="8px" />
	<rect fill="rgb(32,38,141)" x="9px" y="8px" />
	<rect fill="rgb(99,89,170)" x="10px" y="8px" />
	<rect fill="rgb(76,69,161)" x="11px" y="8px" />
	<rect fill="rgb(60,55,154)" x="12px" y="8px" />
	<rect fill="rgb(55,52,153)" x="13px" y="8px" />
	<rect fill="rgb(26,32,139)" x="14px" y="8px" />
	<rect fill="rgb(88,98,171)" x="15px" y="8px" />
	<rect fill="rgb(100,91,170)" x="1px" y="9px" />
	<rect fill="rgb(43,43,146)" x="2px" y="9px" />
	<rect fill="rgb(45,45,148)" x="3px" y="9px" />
	<rect fill="rgb(124,114,181)" x="4px" y="9px" />
	<rect fill="rgb(124,114,181)" x="5px" y="9px" />
	<rect fill="rgb(124,114,181)" x="6px" y="9px" />
	<rect fill="rgb(84,78,164)" x="7px" y="9px" />
	<rect fill="rgb(39,39,145)" x="8px" y="9px" />
	<rect fill="rgb(39,39,145)" x="9px" y="9px" />
	<rect fill="rgb(63,58,156)" x="10px" y="9px" />
	<rect fill="rgb(61,56,155)" x="11px" y="9px" />
	<rect fill="rgb(46,44,147)" x="12px" y="9px" />
	<rect fill="rgb(30,34,139)" x="13px" y="9px" />
	<rect fill="rgb(30,34,139)" x="14px" y="9px" />
	<rect fill="rgb(74,67,160)" x="2px" y="10px" />
	<rect fill="rgb(71,64,160)" x="3px" y="10px" />
	<rect fill="rgb(97,87,169)" x="4px" y="10px" />
	<rect fill="rgb(97,87,169)" x="5px" y="10px" />
	<rect fill="rgb(97,87,169)" x="6px" y="10px" />
	<rect fill="rgb(94,85,168)" x="7px" y="10px" />
	<rect fill="rgb(68,62,159)" x="8px" y="10px" />
	<rect fill="rgb(62,57,156)" x="9px" y="10px" />
	<rect fill="rgb(60,55,154)" x="10px" y="10px" />
	<rect fill="rgb(47,45,148)" x="11px" y="10px" />
	<rect fill="rgb(31,35,140)" x="12px" y="10px" />
	<rect fill="rgb(25,32,137)" x="13px" y="10px" />
	<rect fill="rgb(30,34,139)" x="14px" y="10px" />
	<rect fill="rgb(62,57,156)" x="2px" y="11px" />
	<rect fill="rgb(62,57,156)" x="3px" y="11px" />
	<rect fill="rgb(71,64,160)" x="4px" y="11px" />
	<rect fill="rgb(71,64,160)" x="5px" y="11px" />
	<rect fill="rgb(68,62,159)" x="6px" y="11px" />
	<rect fill="rgb(62,57,156)" x="7px" y="11px" />
	<rect fill="rgb(60,55,154)" x="8px" y="11px" />
	<rect fill="rgb(53,49,151)" x="9px" y="11px" />
	<rect fill="rgb(39,39,145)" x="10px" y="11px" />
	<rect fill="rgb(29,34,140)" x="11px" y="11px" />
	<rect fill="rgb(25,32,137)" x="12px" y="11px" />
	<rect fill="rgb(41,53,147)" x="13px" y="11px" />
	<rect fill="rgb(98,93,171)" x="2px" y="12px" />
	<rect fill="rgb(43,43,147)" x="3px" y="12px" />
	<rect fill="rgb(50,47,150)" x="4px" y="12px" />
	<rect fill="rgb(50,47,150)" x="5px" y="12px" />
	<rect fill="rgb(50,47,150)" x="6px" y="12px" />
	<rect fill="rgb(65,61,157)" x="7px" y="12px" />
	<rect fill="rgb(63,58,155)" x="8px" y="12px" />
	<rect fill="rgb(32,35,140)" x="9px" y="12px" />
	<rect fill="rgb(28,33,139)" x="10px" y="12px" />
	<rect fill="rgb(19,28,135)" x="11px" y="12px" />
	<rect fill="rgb(9,23,131)" x="12px" y="12px" />
	<rect fill="rgb(40,48,146)" x="13px" y="12px" />
	<rect fill="rgb(16,38,136)" x="2px" y="13px" />
	<rect fill="rgb(16,38,136)" x="3px" y="13px" />
	<rect fill="rgb(11,25,131)" x="4px" y="13px" />
	<rect fill="rgb(28,33,139)" x="5px" y="13px" />
	<rect fill="rgb(49,52,148)" x="6px" y="13px" />
	<rect fill="rgb(85,89,168)" x="7px" y="13px" />
	<rect fill="rgb(65,61,157)" x="8px" y="13px" />
	<rect fill="rgb(20,28,136)" x="9px" y="13px" />
	<rect fill="rgb(11,25,131)" x="10px" y="13px" />
	<rect fill="rgb(11,25,131)" x="11px" y="13px" />
	<rect fill="rgb(40,48,146)" x="12px" y="13px" />
	<rect fill="rgb(32,43,141)" x="13px" y="13px" />
	<rect fill="rgb(85,89,168)" x="6px" y="14px" />
	<rect fill="rgb(158,148,198)" x="7px" y="14px" />
	<rect fill="rgb(69,64,158)" x="8px" y="14px" />
	<rect fill="rgb(30,34,139)" x="9px" y="14px" />
	<rect fill="rgb(85,89,168)" x="7px" y="15px" />
	<rect fill="rgb(85,89,168)" x="8px" y="15px" />
</svg>