<svg xmlns="http://www.w3.org/2000/svg" xmlns:xlink="http://www.w3.org/1999/xlink" preserveAspectRatio="xMidYMid meet" width="13" height="13" xmlns:v="https://vecta.io/nano"><style><![CDATA[.B{fill-opacity:0}.C{fill:red}]]></style><defs><path d="M3 7h7v3H3V7z" id="A"/><path d="M6 0h1v13H6V0z" id="B"/><path d="M0 6h13v1H0V6z" id="C"/><path d="M10 2h1v1h-1V2z" id="D"/><path d="M10 10h1v1h-1v-1z" id="E"/><path d="M9 3h1v3H9V3z" id="F"/><path d="M9 4h2v2H9V4z" id="G"/><path d="M7 2h2v4H7V2z" id="H"/><path d="M4 2h2v4H4V2z" id="I"/><path d="M4 4h3.5v7H4V4z" id="J"/><path d="M7 7h2v4H7V7z" id="K"/><path d="M9 7h1v3H9V7z" id="L"/><path d="M3 3h1v3H3V3z" id="M"/><path d="M10 7h1v2h-1V7z" id="N"/><path d="M2 4h2v5H2V4z" id="O"/><path d="M2 7h1v2H2V7z" id="P"/><path d="M4 4h2v2H4V4z" id="Q"/><path d="M2 6h.9v3H2V6z" id="R"/><path d="M6 3h4v7H6V3z" id="S"/><path d="M3 3h7v1H3V3z" id="T"/><path d="M4 2h5v1H4V2z" id="U"/><path d="M4 10h5v1H4v-1z" id="V"/><path d="M10 4h1v5h-1V4z" id="W"/><path d="M2 2h1v1H2V2z" id="X"/><path d="M2 10h1v1H2v-1z" id="Y"/><path d="M5.5 6h2v2h-2V6z" id="Z"/><path d="M7 8h2v1H7V8z" id="a"/><path d="M8 9h2v1H8V9z" id="b"/><path d="M9 10h2v1H9v-1z" id="c"/><path d="M2 10h2v1H2v-1z" id="d"/><path d="M3 9h2v1H3V9z" id="e"/><path d="M4 8h2v1H4V8z" id="f"/><path d="M10 11h2v1h-2v-1z" id="g"/><path d="M11 12h2v1h-2v-1z" id="h"/><path d="M0 12h2v1H0v-1z" id="i"/><path d="M1 11h2v1H1v-1z" id="j"/><path d="M7 5h2v1H7V5z" id="k"/><path d="M4 5h2v1H4V5z" id="l"/><path d="M3 4h2v1H3V4z" id="m"/><path d="M2 3h2v1H2V3z" id="n"/><path d="M1 2h2v1H1V2z" id="o"/><path d="M0 1h2v1H0V1z" id="p"/><path d="M8 4h2v1H8V4z" id="q"/><path d="M9 3h2v1H9V3z" id="r"/><path d="M10 2h2v1h-2V2z" id="s"/><path d="M11 1h2v1h-2V1z" id="t"/></defs><use xlink:href="#A"/><use xlink:href="#A" class="B"/><use xlink:href="#B"/><use xlink:href="#B" class="B"/><use xlink:href="#C"/><use xlink:href="#C" class="B"/><use xlink:href="#D"/><use xlink:href="#D" class="B"/><use xlink:href="#E"/><use xlink:href="#E" class="B"/><use xlink:href="#F"/><use xlink:href="#F" class="B"/><use xlink:href="#G"/><use xlink:href="#G" class="B"/><use xlink:href="#H"/><use xlink:href="#H" class="B"/><use xlink:href="#I"/><use xlink:href="#I" class="B"/><use xlink:href="#J"/><use xlink:href="#J" class="B"/><use xlink:href="#K"/><use xlink:href="#K" class="B"/><use xlink:href="#L"/><use xlink:href="#L" class="B"/><use xlink:href="#M"/><use xlink:href="#M" class="B"/><use xlink:href="#N"/><use xlink:href="#N" class="B"/><use xlink:href="#O"/><use xlink:href="#O" class="B"/><use xlink:href="#P"/><use xlink:href="#P" class="B"/><use xlink:href="#Q" fill="#fff"/><use xlink:href="#Q" class="B"/><use xlink:href="#R"/><use xlink:href="#R" class="B"/><use xlink:href="#S"/><use xlink:href="#S" class="B"/><use xlink:href="#T"/><use xlink:href="#T" class="B"/><use xlink:href="#U"/><use xlink:href="#U" class="B"/><use xlink:href="#V"/><use xlink:href="#V" class="B"/><use xlink:href="#W"/><use xlink:href="#W" class="B"/><use xlink:href="#X"/><use xlink:href="#X" class="B"/><use xlink:href="#Y"/><use xlink:href="#Y" class="B"/><use xlink:href="#Z" class="C"/><use xlink:href="#Z" class="B"/><use xlink:href="#a" class="C"/><use xlink:href="#a" class="B"/><use xlink:href="#b" class="C"/><use xlink:href="#b" class="B"/><use xlink:href="#c" class="C"/><use xlink:href="#c" class="B"/><use xlink:href="#d" class="C"/><use xlink:href="#d" class="B"/><use xlink:href="#e" class="C"/><use xlink:href="#e" class="B"/><use xlink:href="#f" class="C"/><use xlink:href="#f" class="B"/><use xlink:href="#g" class="C"/><use xlink:href="#g" class="B"/><use xlink:href="#h" class="C"/><use xlink:href="#h" class="B"/><use xlink:href="#i" class="C"/><use xlink:href="#i" class="B"/><use xlink:href="#j" class="C"/><use xlink:href="#j" class="B"/><use xlink:href="#k" class="C"/><use xlink:href="#k" class="B"/><use xlink:href="#l" class="C"/><use xlink:href="#l" class="B"/><use xlink:href="#m" class="C"/><use xlink:href="#m" class="B"/><use xlink:href="#n" class="C"/><use xlink:href="#n" class="B"/><use xlink:href="#o" class="C"/><use xlink:href="#o" class="B"/><use xlink:href="#p" class="C"/><use xlink:href="#p" class="B"/><use xlink:href="#q" class="C"/><use xlink:href="#q" class="B"/><use xlink:href="#r" class="C"/><use xlink:href="#r" class="B"/><use xlink:href="#s" class="C"/><use xlink:href="#s" class="B"/><use xlink:href="#t" class="C"/><use xlink:href="#t" class="B"/></svg>